<?xml version="1.0" standalone="no"?>
<!DOCTYPE svg PUBLIC "-//W3C//DTD SVG 20010904//EN"
 "http://www.w3.org/TR/2001/REC-SVG-20010904/DTD/svg10.dtd">
<svg version="1.0" xmlns="http://www.w3.org/2000/svg"
 width="222.000000pt" height="262.000000pt" viewBox="0 0 222.000000 262.000000"
 preserveAspectRatio="xMidYMid meet">

<g transform="translate(0.000000,262.000000) scale(0.100000,-0.100000)"
fill="#000000" stroke="none">
<path d="M989 1708 c-110 -189 -134 -237 -126 -252 15 -29 88 -106 102 -106 6
0 45 60 86 134 40 74 77 132 80 130 4 -2 39 -62 79 -134 59 -107 70 -133 60
-145 -7 -8 -18 -15 -24 -15 -7 0 -20 -6 -30 -13 -14 -10 -15 -18 -7 -39 8 -23
7 -27 -12 -32 -75 -20 -222 10 -311 64 -94 56 -184 173 -217 280 -5 19 -7 11
-8 -31 -1 -63 26 -162 62 -224 l22 -40 -77 -134 c-98 -171 -109 -202 -115
-331 -7 -131 6 -196 59 -302 92 -184 271 -302 480 -315 113 -8 192 8 298 59
163 78 278 230 316 417 31 156 3 272 -112 472 l-74 129 25 50 c33 65 55 152
54 215 l0 50 -17 -40 c-28 -67 -29 -67 -74 -22 -52 53 -65 54 -78 9 -5 -21
-14 -43 -18 -49 -5 -8 -55 70 -141 217 -73 127 -136 230 -140 230 -4 0 -68
-105 -142 -232z m-43 -580 c66 -31 75 -33 184 -33 103 0 122 3 180 28 36 15
69 29 74 30 5 1 34 -46 64 -104 55 -106 55 -107 55 -196 0 -80 -3 -97 -32
-160 -41 -87 -113 -162 -196 -199 -50 -23 -74 -28 -145 -28 -75 -1 -93 3 -150
30 -115 55 -188 147 -216 272 -26 118 -4 209 88 360 11 17 21 32 23 32 1 0 34
-15 71 -32z"/>
<path d="M1382 1905 c2 -12 -2 -19 -9 -17 -22 4 -13 -40 23 -113 l34 -70 -3
70 c-3 47 -11 83 -26 110 -11 22 -20 31 -19 20z"/>
</g>
</svg>
