<svg width="274" height="274" viewBox="0 0 274 274" fill="none" xmlns="http://www.w3.org/2000/svg">
<circle cx="137" cy="137" r="137" fill="#4B139A"/>
<circle cx="137" cy="137" r="123" fill="url(#paint0_linear)"/>
<circle cx="137" cy="137" r="123" fill="white"/>
<circle cx="137" cy="137" r="114" fill="url(#paint1_linear)"/>
<circle cx="137" cy="137" r="114" fill="#4B139A"/>
<path fill-rule="evenodd" clip-rule="evenodd" d="M173.048 101.378L173.094 101.478C175.401 106.515 176.69 112.11 176.697 118.01C176.697 126.589 173.984 134.535 169.37 141.037C175.983 152.503 181.081 161.406 181.499 162.318L181.556 162.441C184.401 168.655 185.992 175.558 186 182.837C186 209.98 163.994 231.982 136.847 231.982C109.7 231.982 87.6944 209.98 87.6944 182.837C87.6944 175.558 89.2932 168.655 92.1301 162.441H92.1137L92.1875 162.318C92.6056 161.406 97.7076 152.498 104.324 141.026C99.7142 134.527 97.0046 126.585 97.0046 118.01C97.0046 112.11 98.3006 106.515 100.6 101.478H100.587L100.647 101.378C101.482 99.5552 125.371 58.3832 133.878 43.734C135.21 41.4417 138.492 41.4419 139.823 43.7343C148.328 58.3837 172.213 99.5552 173.048 101.378ZM113.787 124.652C112.252 121.276 111.394 117.507 111.394 113.532C111.394 109.651 112.219 105.97 113.681 102.654L113.714 102.588C114.321 101.224 133.829 66.5125 136.464 61.8249C136.596 61.59 136.919 61.59 137.051 61.8249C139.686 66.5125 159.194 101.224 159.801 102.588L159.835 102.654C161.303 105.97 162.121 109.651 162.121 113.532C162.121 117.441 161.292 121.151 159.805 124.484C151.951 110.911 143.995 97.2014 139.824 90.0177C138.493 87.7252 135.201 87.725 133.87 90.0175C129.681 97.2309 121.674 111.025 113.787 124.652ZM115.134 151.416C111.367 158.171 108.555 163.253 108.307 163.81L108.266 163.892C106.462 167.983 105.445 172.525 105.445 177.312C105.445 195.158 119.457 209.635 136.732 209.635C154.016 209.635 168.02 195.158 168.02 177.312C168.02 172.525 167.011 167.983 165.199 163.892L165.158 163.81C164.911 163.256 162.129 158.227 158.393 151.528C152.182 155.527 144.787 157.846 136.851 157.846C128.84 157.846 121.381 155.483 115.134 151.416ZM149.736 136.047C145.939 138.387 141.501 139.732 136.758 139.732C132 139.732 127.548 138.378 123.743 136.023C130.42 124.105 136.732 112.878 136.732 112.878C136.732 112.878 143.053 124.121 149.736 136.047Z" fill="white"/>
<defs>
<linearGradient id="paint0_linear" x1="49.9124" y1="-17.4234" x2="134.664" y2="260.176" gradientUnits="userSpaceOnUse">
<stop stop-color="#5BEA29" stop-opacity="0.97"/>
<stop offset="1" stop-color="#B482FE" stop-opacity="0"/>
</linearGradient>
<linearGradient id="paint1_linear" x1="56.2847" y1="-6.12409" x2="134.835" y2="251.163" gradientUnits="userSpaceOnUse">
<stop stop-color="#5BEA29" stop-opacity="0.97"/>
<stop offset="1" stop-color="#B482FE" stop-opacity="0"/>
</linearGradient>
</defs>
</svg>
