<svg width="242" height="98" viewBox="0 0 242 98" fill="none" xmlns="http://www.w3.org/2000/svg">
<path d="M48.2706 56.0185L48.2557 55.9867C47.9588 55.3386 38.5296 39.0989 36.9371 36.3572C36.8332 36.1783 36.5864 36.1782 36.4825 36.3571C34.8897 39.0988 25.4587 55.3386 25.1618 55.9867L25.1427 56.0185H25.147C24.4134 57.6253 24 59.4101 24 61.2924C24 68.3109 29.6903 74.0002 36.7098 74.0002C43.7294 74.0002 49.4196 68.3109 49.4196 61.2924C49.4175 59.4101 49.0062 57.6253 48.2706 56.0185ZM36.6801 68.2218C32.2131 68.2218 28.59 64.4784 28.59 59.8637C28.59 58.6258 28.8528 57.4515 29.3193 56.3937L29.3299 56.3725C29.5376 55.9062 36.6801 43.2026 36.6801 43.2026C36.6801 43.2026 43.8226 55.9062 44.0304 56.3725L44.041 56.3937C44.5096 57.4515 44.7703 58.6258 44.7703 59.8637C44.7703 64.4784 41.1492 68.2218 36.6801 68.2218Z" fill="#5A1EB4"/>
<path d="M48.2706 56.0185L48.2557 55.9867C47.9588 55.3386 38.5296 39.0989 36.9371 36.3572C36.8332 36.1783 36.5864 36.1782 36.4825 36.3571C34.8897 39.0988 25.4587 55.3386 25.1618 55.9867L25.1427 56.0185H25.147C24.4134 57.6253 24 59.4101 24 61.2924C24 68.3109 29.6903 74.0002 36.7098 74.0002C43.7294 74.0002 49.4196 68.3109 49.4196 61.2924C49.4175 59.4101 49.0062 57.6253 48.2706 56.0185ZM36.6801 68.2218C32.2131 68.2218 28.59 64.4784 28.59 59.8637C28.59 58.6258 28.8528 57.4515 29.3193 56.3937L29.3299 56.3725C29.5376 55.9062 36.6801 43.2026 36.6801 43.2026C36.6801 43.2026 43.8226 55.9062 44.0304 56.3725L44.041 56.3937C44.5096 57.4515 44.7703 58.6258 44.7703 59.8637C44.7703 64.4784 41.1492 68.2218 36.6801 68.2218Z" fill="url(#paint0_linear)"/>
<mask id="mask0" mask-type="alpha" maskUnits="userSpaceOnUse" x="24" y="36" width="26" height="39">
<path d="M48.2706 56.0185L48.2557 55.9867C47.9588 55.3386 38.5296 39.0989 36.9371 36.3572C36.8332 36.1783 36.5864 36.1782 36.4825 36.3571C34.8897 39.0988 25.4587 55.3386 25.1618 55.9867L25.1427 56.0185H25.147C24.4134 57.6253 24 59.4101 24 61.2924C24 68.3109 29.6903 74.0002 36.7098 74.0002C43.7294 74.0002 49.4196 68.3109 49.4196 61.2924C49.4175 59.4101 49.0062 57.6253 48.2706 56.0185ZM36.6801 68.2218C32.2131 68.2218 28.59 64.4784 28.59 59.8637C28.59 58.6258 28.8528 57.4515 29.3193 56.3937L29.3299 56.3725C29.5376 55.9062 36.6801 43.2026 36.6801 43.2026C36.6801 43.2026 43.8226 55.9062 44.0304 56.3725L44.041 56.3937C44.5096 57.4515 44.7703 58.6258 44.7703 59.8637C44.7703 64.4784 41.1492 68.2218 36.6801 68.2218Z" fill="white"/>
</mask>
<g mask="url(#mask0)">
<path d="M48.0576 51.165L48.0428 51.1332C47.7458 50.4851 38.3167 34.2454 36.7242 31.5036C36.6203 31.3247 36.3734 31.3247 36.2695 31.5036C34.6767 34.2453 25.2458 50.4851 24.9488 51.1332L24.9298 51.165H24.934C24.2005 52.7718 23.787 54.5566 23.787 56.4389C23.787 63.4574 29.4773 69.1467 36.4969 69.1467C43.5164 69.1467 49.2067 63.4574 49.2067 56.4389C49.2046 54.5566 48.7933 52.7718 48.0576 51.165ZM36.4672 63.3683C32.0002 63.3683 28.377 59.6249 28.377 55.0102C28.377 53.7723 28.6399 52.5979 29.1063 51.5402L29.1169 51.519C29.3247 51.0527 36.4672 38.3491 36.4672 38.3491C36.4672 38.3491 43.6097 51.0527 43.8175 51.519L43.8281 51.5402C44.2966 52.5979 44.5574 53.7723 44.5574 55.0102C44.5574 59.6249 40.9363 63.3683 36.4672 63.3683Z" fill="#7730E1"/>
</g>
<mask id="mask1" mask-type="alpha" maskUnits="userSpaceOnUse" x="24" y="36" width="26" height="39">
<path d="M48.2706 56.0185L48.2557 55.9867C47.9588 55.3386 38.5296 39.0989 36.9371 36.3572C36.8332 36.1783 36.5864 36.1782 36.4825 36.3571C34.8897 39.0988 25.4587 55.3386 25.1618 55.9867L25.1427 56.0185H25.147C24.4134 57.6253 24 59.4101 24 61.2924C24 68.3109 29.6903 74.0002 36.7098 74.0002C43.7294 74.0002 49.4196 68.3109 49.4196 61.2924C49.4175 59.4101 49.0062 57.6253 48.2706 56.0185ZM36.6801 68.2218C32.2131 68.2218 28.59 64.4784 28.59 59.8637C28.59 58.6258 28.8528 57.4515 29.3193 56.3937L29.3299 56.3725C29.5376 55.9062 36.6801 43.2026 36.6801 43.2026C36.6801 43.2026 43.8226 55.9062 44.0304 56.3725L44.041 56.3937C44.5096 57.4515 44.7703 58.6258 44.7703 59.8637C44.7703 64.4784 41.1492 68.2218 36.6801 68.2218Z" fill="#914AFB"/>
</mask>
<g mask="url(#mask1)">
<path d="M33.1915 40.9702L36.7094 42.7962L33.2945 49.375L30.398 46.8539L33.1915 40.9702Z" fill="url(#paint1_linear)"/>
<rect width="3.96365" height="5.83989" transform="matrix(0.866045 0.499966 0.500034 -0.866006 25.5524 54.9841)" fill="url(#paint2_linear)"/>
</g>
<path d="M46.0837 40.2543L46.0717 40.2285C45.8338 39.7093 38.3647 26.8454 36.944 24.3995C36.8401 24.2206 36.5837 24.2206 36.4798 24.3995C35.0588 26.8453 27.5883 39.7093 27.3504 40.2285L27.3349 40.2543H27.3384C26.7437 41.5567 26.4086 43.0035 26.4086 44.5292C26.4086 50.2183 31.0214 54.83 36.7119 54.83C42.4024 54.83 47.0152 50.2183 47.0152 44.5292C47.0135 43.0035 46.6801 41.5567 46.0837 40.2543ZM36.6878 50.1461C33.0666 50.1461 30.1295 47.1117 30.1295 43.3712C30.1295 42.3677 30.3426 41.4158 30.7207 40.5585L30.7293 40.5413C30.8917 40.1768 36.2817 30.5884 36.6662 29.9044C36.6765 29.8861 36.6991 29.8861 36.7094 29.9044C37.094 30.5884 42.484 40.1768 42.6464 40.5413L42.655 40.5585C43.0348 41.4158 43.2462 42.3677 43.2462 43.3712C43.2462 47.1117 40.3108 50.1461 36.6878 50.1461Z" fill="#7B64F7"/>
<mask id="mask2" mask-type="alpha" maskUnits="userSpaceOnUse" x="26" y="24" width="22" height="31">
<path d="M46.0837 40.2543L46.0717 40.2285C45.8338 39.7093 38.3647 26.8454 36.944 24.3995C36.8401 24.2206 36.5837 24.2206 36.4798 24.3995C35.0588 26.8453 27.5883 39.7093 27.3504 40.2285L27.3349 40.2543H27.3384C26.7437 41.5567 26.4086 43.0035 26.4086 44.5292C26.4086 50.2183 31.0214 54.83 36.7119 54.83C42.4024 54.83 47.0152 50.2183 47.0152 44.5292C47.0135 43.0035 46.6801 41.5567 46.0837 40.2543ZM36.6878 50.1461C33.0666 50.1461 30.1295 47.1117 30.1295 43.3712C30.1295 42.3677 30.3426 41.4158 30.7207 40.5585L30.7293 40.5413C30.8917 40.1768 36.2817 30.5884 36.6662 29.9044C36.6765 29.8861 36.6991 29.8861 36.7094 29.9044C37.094 30.5884 42.484 40.1768 42.6464 40.5413L42.655 40.5585C43.0348 41.4158 43.2462 42.3677 43.2462 43.3712C43.2462 47.1117 40.3108 50.1461 36.6878 50.1461Z" fill="#927EFC"/>
</mask>
<g mask="url(#mask2)">
<path d="M46.0841 37.0698L46.0721 37.044C45.8342 36.5248 38.3651 23.6608 36.9444 21.215C36.8405 21.0361 36.5841 21.036 36.4801 21.2149C35.0592 23.6608 27.5887 36.5248 27.3508 37.044L27.3353 37.0698H27.3387C26.7441 38.3722 26.4089 39.8189 26.4089 41.3447C26.4089 47.0337 31.0218 51.6454 36.7123 51.6454C42.4027 51.6454 47.0156 47.0337 47.0156 41.3447C47.0139 39.8189 46.6805 38.3722 46.0841 37.0698ZM36.6882 46.9615C33.067 46.9615 30.1298 43.9272 30.1298 40.1866C30.1298 39.1832 30.3429 38.2313 30.721 37.3739L30.7296 37.3567C30.892 36.9922 36.2821 27.4038 36.6666 26.7199C36.6769 26.7015 36.6995 26.7015 36.7098 26.7199C37.0944 27.4038 42.4844 36.9922 42.6468 37.3567L42.6554 37.3739C43.0352 38.2313 43.2466 39.1832 43.2466 40.1866C43.2466 43.9272 40.3111 46.9615 36.6882 46.9615Z" fill="#927EFC"/>
</g>
<path d="M46.0837 40.2543L46.0717 40.2285C45.8338 39.7093 38.3647 26.8454 36.944 24.3995C36.8401 24.2206 36.5837 24.2206 36.4798 24.3995C35.0588 26.8453 27.5883 39.7093 27.3504 40.2285L27.3349 40.2543H27.3384C26.7437 41.5567 26.4086 43.0035 26.4086 44.5292C26.4086 50.2183 31.0214 54.83 36.7119 54.83C42.4024 54.83 47.0152 50.2183 47.0152 44.5292C47.0135 43.0035 46.6801 41.5567 46.0837 40.2543ZM36.6878 50.1461C33.0666 50.1461 30.1295 47.1117 30.1295 43.3712C30.1295 42.3677 30.3426 41.4158 30.7207 40.5585L30.7293 40.5413C30.8917 40.1768 36.2817 30.5884 36.6662 29.9044C36.6765 29.8861 36.6991 29.8861 36.7094 29.9044C37.094 30.5884 42.484 40.1768 42.6464 40.5413L42.655 40.5585C43.0348 41.4158 43.2462 42.3677 43.2462 43.3712C43.2462 47.1117 40.3108 50.1461 36.6878 50.1461Z" fill="url(#paint3_linear)"/>
<mask id="mask3" mask-type="alpha" maskUnits="userSpaceOnUse" x="26" y="24" width="22" height="31">
<path d="M46.0837 40.2543L46.0717 40.2285C45.8338 39.7093 38.3647 26.8454 36.944 24.3995C36.8401 24.2206 36.5837 24.2206 36.4798 24.3995C35.0588 26.8453 27.5883 39.7093 27.3504 40.2285L27.3349 40.2543H27.3384C26.7437 41.5567 26.4086 43.0035 26.4086 44.5292C26.4086 50.2183 31.0214 54.83 36.7119 54.83C42.4024 54.83 47.0152 50.2183 47.0152 44.5292C47.0135 43.0035 46.6801 41.5567 46.0837 40.2543ZM36.6878 50.1461C33.0666 50.1461 30.1295 47.1117 30.1295 43.3712C30.1295 42.3677 30.3426 41.4158 30.7207 40.5585L30.7293 40.5413C30.8917 40.1768 36.2817 30.5884 36.6662 29.9044C36.6765 29.8861 36.6991 29.8861 36.7094 29.9044C37.094 30.5884 42.484 40.1768 42.6464 40.5413L42.655 40.5585C43.0348 41.4158 43.2462 42.3677 43.2462 43.3712C43.2462 47.1117 40.3108 50.1461 36.6878 50.1461Z" fill="#914AFB"/>
</mask>
<g mask="url(#mask3)">
<path d="M43.4351 40.8194L50.3189 47.6224L45.1138 50.4965L42.6471 46.1964L43.4351 40.8194Z" fill="url(#paint4_linear)"/>
<path d="M34.1045 48.5871L37.1048 56.1454L42.5033 53.59L40.0447 49.1938L34.1045 48.5871Z" fill="url(#paint5_linear)"/>
</g>
<mask id="mask4" mask-type="alpha" maskUnits="userSpaceOnUse" x="38" y="45" width="9" height="10">
<rect x="38.0668" y="45.3906" width="8.5987" height="9.44796" fill="#C4C4C4"/>
</mask>
<g mask="url(#mask4)">
<path fill-rule="evenodd" clip-rule="evenodd" d="M45.1233 50.4841C44.3535 49.1492 43.5042 47.6798 42.6503 46.2041C42.0936 47.4515 41.1807 48.4944 40.0462 49.1936C40.8198 50.5742 41.6121 51.9903 42.2848 53.1967C43.3956 52.4819 44.3601 51.5594 45.1233 50.4841ZM31.0989 53.1665C31.7692 51.9645 32.5564 50.5576 33.3248 49.1862C32.2084 48.4948 31.3074 47.4701 30.7509 46.2454C29.9058 47.7056 29.066 49.1584 28.3039 50.4797C29.057 51.5417 30.0062 52.4549 31.0989 53.1665Z" fill="#7D35E8"/>
</g>
<mask id="mask5" mask-type="alpha" maskUnits="userSpaceOnUse" x="28" y="46" width="18" height="8">
<path fill-rule="evenodd" clip-rule="evenodd" d="M45.1229 50.4841C44.3531 49.1492 43.5038 47.6798 42.6498 46.2041C42.0932 47.4515 41.1803 48.4944 40.0458 49.1936C40.8194 50.5742 41.6117 51.9903 42.2844 53.1967C43.3952 52.4819 44.3596 51.5594 45.1229 50.4841ZM31.0985 53.1665C31.7688 51.9645 32.556 50.5576 33.3244 49.1862C32.208 48.4948 31.307 47.4701 30.7505 46.2454C29.9054 47.7056 29.0656 49.1584 28.3035 50.4797C29.0565 51.5417 30.0058 52.4549 31.0985 53.1665Z" fill="#7D35E8"/>
</mask>
<g mask="url(#mask5)">
<path d="M45.246 53.7129H45.0995C45.042 53.5872 44.5722 52.9273 43.9584 51.8395C43.3478 50.7575 42.5956 49.2517 41.676 47.6371C38.758 42.5139 34.8898 35.7621 33.9155 34.0619C33.8122 33.8818 33.5604 33.8749 33.4562 34.0544C31.8584 36.8046 22.434 53.0332 22.1372 53.6811L22.1181 53.7129H22.1224C21.3888 55.3196 20.9754 57.1044 20.9754 58.9868C20.9754 66.0052 26.6657 71.6946 33.6852 71.6946C40.7048 71.6946 46.395 66.0052 46.395 58.9868C46.3929 57.1044 45.9816 55.3196 45.246 53.7129ZM33.6555 65.9162C29.1886 65.9162 25.5654 62.1727 25.5654 57.5581C25.5654 56.3201 25.8282 55.1458 26.2947 54.0881L26.3053 54.0669C26.513 53.6005 33.6555 40.8969 33.6555 40.8969C33.6555 40.8969 40.798 53.6005 41.0058 54.0669L41.0164 54.0881C41.485 55.1458 41.7457 56.3201 41.7457 57.5581C41.7457 62.1727 38.1246 65.9162 33.6555 65.9162Z" fill="#5A1EB4"/>
</g>
<g filter="url(#filter0_f)">
<path d="M48.2706 56.0185L48.2557 55.9867C47.9588 55.3386 38.5296 39.0989 36.9371 36.3572C36.8332 36.1783 36.5864 36.1782 36.4825 36.3571C34.8897 39.0988 25.4587 55.3386 25.1618 55.9867L25.1427 56.0185H25.147C24.4134 57.6253 24 59.4101 24 61.2924C24 68.3109 29.6903 74.0002 36.7098 74.0002C43.7294 74.0002 49.4196 68.3109 49.4196 61.2924C49.4175 59.4101 49.0062 57.6253 48.2706 56.0185ZM36.6801 68.2218C32.2131 68.2218 28.59 64.4784 28.59 59.8637C28.59 58.6258 28.8528 57.4515 29.3193 56.3937L29.3299 56.3725C29.5376 55.9062 36.6801 43.2026 36.6801 43.2026C36.6801 43.2026 43.8226 55.9062 44.0304 56.3725L44.041 56.3937C44.5096 57.4515 44.7703 58.6258 44.7703 59.8637C44.7703 64.4784 41.1492 68.2218 36.6801 68.2218Z" fill="#5A1EB4"/>
<path d="M48.2706 56.0185L48.2557 55.9867C47.9588 55.3386 38.5296 39.0989 36.9371 36.3572C36.8332 36.1783 36.5864 36.1782 36.4825 36.3571C34.8897 39.0988 25.4587 55.3386 25.1618 55.9867L25.1427 56.0185H25.147C24.4134 57.6253 24 59.4101 24 61.2924C24 68.3109 29.6903 74.0002 36.7098 74.0002C43.7294 74.0002 49.4196 68.3109 49.4196 61.2924C49.4175 59.4101 49.0062 57.6253 48.2706 56.0185ZM36.6801 68.2218C32.2131 68.2218 28.59 64.4784 28.59 59.8637C28.59 58.6258 28.8528 57.4515 29.3193 56.3937L29.3299 56.3725C29.5376 55.9062 36.6801 43.2026 36.6801 43.2026C36.6801 43.2026 43.8226 55.9062 44.0304 56.3725L44.041 56.3937C44.5096 57.4515 44.7703 58.6258 44.7703 59.8637C44.7703 64.4784 41.1492 68.2218 36.6801 68.2218Z" fill="url(#paint6_linear)"/>
<mask id="mask6" mask-type="alpha" maskUnits="userSpaceOnUse" x="24" y="36" width="26" height="39">
<path d="M48.2706 56.0185L48.2557 55.9867C47.9588 55.3386 38.5296 39.0989 36.9371 36.3572C36.8332 36.1783 36.5864 36.1782 36.4825 36.3571C34.8897 39.0988 25.4587 55.3386 25.1618 55.9867L25.1427 56.0185H25.147C24.4134 57.6253 24 59.4101 24 61.2924C24 68.3109 29.6903 74.0002 36.7098 74.0002C43.7294 74.0002 49.4196 68.3109 49.4196 61.2924C49.4175 59.4101 49.0062 57.6253 48.2706 56.0185ZM36.6801 68.2218C32.2131 68.2218 28.59 64.4784 28.59 59.8637C28.59 58.6258 28.8528 57.4515 29.3193 56.3937L29.3299 56.3725C29.5376 55.9062 36.6801 43.2026 36.6801 43.2026C36.6801 43.2026 43.8226 55.9062 44.0304 56.3725L44.041 56.3937C44.5096 57.4515 44.7703 58.6258 44.7703 59.8637C44.7703 64.4784 41.1492 68.2218 36.6801 68.2218Z" fill="white"/>
</mask>
<g mask="url(#mask6)">
<path d="M48.0576 51.165L48.0428 51.1332C47.7458 50.4851 38.3167 34.2454 36.7242 31.5036C36.6203 31.3247 36.3734 31.3247 36.2695 31.5036C34.6767 34.2453 25.2458 50.4851 24.9488 51.1332L24.9298 51.165H24.934C24.2005 52.7718 23.787 54.5566 23.787 56.4389C23.787 63.4574 29.4773 69.1467 36.4969 69.1467C43.5164 69.1467 49.2067 63.4574 49.2067 56.4389C49.2046 54.5566 48.7933 52.7718 48.0576 51.165ZM36.4672 63.3683C32.0002 63.3683 28.377 59.6249 28.377 55.0102C28.377 53.7723 28.6399 52.5979 29.1063 51.5402L29.1169 51.519C29.3247 51.0527 36.4672 38.3491 36.4672 38.3491C36.4672 38.3491 43.6097 51.0527 43.8175 51.519L43.8281 51.5402C44.2966 52.5979 44.5574 53.7723 44.5574 55.0102C44.5574 59.6249 40.9363 63.3683 36.4672 63.3683Z" fill="#7730E1"/>
</g>
<mask id="mask7" mask-type="alpha" maskUnits="userSpaceOnUse" x="24" y="36" width="26" height="39">
<path d="M48.2706 56.0185L48.2557 55.9867C47.9588 55.3386 38.5296 39.0989 36.9371 36.3572C36.8332 36.1783 36.5864 36.1782 36.4825 36.3571C34.8897 39.0988 25.4587 55.3386 25.1618 55.9867L25.1427 56.0185H25.147C24.4134 57.6253 24 59.4101 24 61.2924C24 68.3109 29.6903 74.0002 36.7098 74.0002C43.7294 74.0002 49.4196 68.3109 49.4196 61.2924C49.4175 59.4101 49.0062 57.6253 48.2706 56.0185ZM36.6801 68.2218C32.2131 68.2218 28.59 64.4784 28.59 59.8637C28.59 58.6258 28.8528 57.4515 29.3193 56.3937L29.3299 56.3725C29.5376 55.9062 36.6801 43.2026 36.6801 43.2026C36.6801 43.2026 43.8226 55.9062 44.0304 56.3725L44.041 56.3937C44.5096 57.4515 44.7703 58.6258 44.7703 59.8637C44.7703 64.4784 41.1492 68.2218 36.6801 68.2218Z" fill="#914AFB"/>
</mask>
<g mask="url(#mask7)">
<path d="M33.1915 40.9702L36.7094 42.7962L33.2945 49.375L30.398 46.8539L33.1915 40.9702Z" fill="url(#paint7_linear)"/>
<rect width="3.96365" height="5.83989" transform="matrix(0.866045 0.499966 0.500034 -0.866006 25.5524 54.9841)" fill="url(#paint8_linear)"/>
</g>
<path d="M46.0837 40.2543L46.0717 40.2285C45.8338 39.7093 38.3647 26.8454 36.944 24.3995C36.8401 24.2206 36.5837 24.2206 36.4798 24.3995C35.0588 26.8453 27.5883 39.7093 27.3504 40.2285L27.3349 40.2543H27.3384C26.7437 41.5567 26.4086 43.0035 26.4086 44.5292C26.4086 50.2183 31.0214 54.83 36.7119 54.83C42.4024 54.83 47.0152 50.2183 47.0152 44.5292C47.0135 43.0035 46.6801 41.5567 46.0837 40.2543ZM36.6878 50.1461C33.0666 50.1461 30.1295 47.1117 30.1295 43.3712C30.1295 42.3677 30.3426 41.4158 30.7207 40.5585L30.7293 40.5413C30.8917 40.1768 36.2817 30.5884 36.6662 29.9044C36.6765 29.8861 36.6991 29.8861 36.7094 29.9044C37.094 30.5884 42.484 40.1768 42.6464 40.5413L42.655 40.5585C43.0348 41.4158 43.2462 42.3677 43.2462 43.3712C43.2462 47.1117 40.3108 50.1461 36.6878 50.1461Z" fill="#7B64F7"/>
<mask id="mask8" mask-type="alpha" maskUnits="userSpaceOnUse" x="26" y="24" width="22" height="31">
<path d="M46.0837 40.2543L46.0717 40.2285C45.8338 39.7093 38.3647 26.8454 36.944 24.3995C36.8401 24.2206 36.5837 24.2206 36.4798 24.3995C35.0588 26.8453 27.5883 39.7093 27.3504 40.2285L27.3349 40.2543H27.3384C26.7437 41.5567 26.4086 43.0035 26.4086 44.5292C26.4086 50.2183 31.0214 54.83 36.7119 54.83C42.4024 54.83 47.0152 50.2183 47.0152 44.5292C47.0135 43.0035 46.6801 41.5567 46.0837 40.2543ZM36.6878 50.1461C33.0666 50.1461 30.1295 47.1117 30.1295 43.3712C30.1295 42.3677 30.3426 41.4158 30.7207 40.5585L30.7293 40.5413C30.8917 40.1768 36.2817 30.5884 36.6662 29.9044C36.6765 29.8861 36.6991 29.8861 36.7094 29.9044C37.094 30.5884 42.484 40.1768 42.6464 40.5413L42.655 40.5585C43.0348 41.4158 43.2462 42.3677 43.2462 43.3712C43.2462 47.1117 40.3108 50.1461 36.6878 50.1461Z" fill="#927EFC"/>
</mask>
<g mask="url(#mask8)">
<path d="M46.0841 37.0698L46.0721 37.044C45.8342 36.5248 38.3651 23.6608 36.9444 21.215C36.8405 21.0361 36.5841 21.036 36.4801 21.2149C35.0592 23.6608 27.5887 36.5248 27.3508 37.044L27.3353 37.0698H27.3387C26.7441 38.3722 26.4089 39.8189 26.4089 41.3447C26.4089 47.0337 31.0218 51.6454 36.7123 51.6454C42.4027 51.6454 47.0156 47.0337 47.0156 41.3447C47.0139 39.8189 46.6805 38.3722 46.0841 37.0698ZM36.6882 46.9615C33.067 46.9615 30.1298 43.9272 30.1298 40.1866C30.1298 39.1832 30.3429 38.2313 30.721 37.3739L30.7296 37.3567C30.892 36.9922 36.2821 27.4038 36.6666 26.7199C36.6769 26.7015 36.6995 26.7015 36.7098 26.7199C37.0944 27.4038 42.4844 36.9922 42.6468 37.3567L42.6554 37.3739C43.0352 38.2313 43.2466 39.1832 43.2466 40.1866C43.2466 43.9272 40.3111 46.9615 36.6882 46.9615Z" fill="#927EFC"/>
</g>
<path d="M46.0837 40.2543L46.0717 40.2285C45.8338 39.7093 38.3647 26.8454 36.944 24.3995C36.8401 24.2206 36.5837 24.2206 36.4798 24.3995C35.0588 26.8453 27.5883 39.7093 27.3504 40.2285L27.3349 40.2543H27.3384C26.7437 41.5567 26.4086 43.0035 26.4086 44.5292C26.4086 50.2183 31.0214 54.83 36.7119 54.83C42.4024 54.83 47.0152 50.2183 47.0152 44.5292C47.0135 43.0035 46.6801 41.5567 46.0837 40.2543ZM36.6878 50.1461C33.0666 50.1461 30.1295 47.1117 30.1295 43.3712C30.1295 42.3677 30.3426 41.4158 30.7207 40.5585L30.7293 40.5413C30.8917 40.1768 36.2817 30.5884 36.6662 29.9044C36.6765 29.8861 36.6991 29.8861 36.7094 29.9044C37.094 30.5884 42.484 40.1768 42.6464 40.5413L42.655 40.5585C43.0348 41.4158 43.2462 42.3677 43.2462 43.3712C43.2462 47.1117 40.3108 50.1461 36.6878 50.1461Z" fill="url(#paint9_linear)"/>
<mask id="mask9" mask-type="alpha" maskUnits="userSpaceOnUse" x="26" y="24" width="22" height="31">
<path d="M46.0837 40.2543L46.0717 40.2285C45.8338 39.7093 38.3647 26.8454 36.944 24.3995C36.8401 24.2206 36.5837 24.2206 36.4798 24.3995C35.0588 26.8453 27.5883 39.7093 27.3504 40.2285L27.3349 40.2543H27.3384C26.7437 41.5567 26.4086 43.0035 26.4086 44.5292C26.4086 50.2183 31.0214 54.83 36.7119 54.83C42.4024 54.83 47.0152 50.2183 47.0152 44.5292C47.0135 43.0035 46.6801 41.5567 46.0837 40.2543ZM36.6878 50.1461C33.0666 50.1461 30.1295 47.1117 30.1295 43.3712C30.1295 42.3677 30.3426 41.4158 30.7207 40.5585L30.7293 40.5413C30.8917 40.1768 36.2817 30.5884 36.6662 29.9044C36.6765 29.8861 36.6991 29.8861 36.7094 29.9044C37.094 30.5884 42.484 40.1768 42.6464 40.5413L42.655 40.5585C43.0348 41.4158 43.2462 42.3677 43.2462 43.3712C43.2462 47.1117 40.3108 50.1461 36.6878 50.1461Z" fill="#914AFB"/>
</mask>
<g mask="url(#mask9)">
<path d="M43.4351 40.8194L50.3189 47.6224L45.1138 50.4965L42.6471 46.1964L43.4351 40.8194Z" fill="url(#paint10_linear)"/>
<path d="M34.1045 48.5871L37.1048 56.1454L42.5033 53.59L40.0447 49.1938L34.1045 48.5871Z" fill="url(#paint11_linear)"/>
</g>
<mask id="mask10" mask-type="alpha" maskUnits="userSpaceOnUse" x="38" y="45" width="9" height="10">
<rect x="38.0668" y="45.3906" width="8.5987" height="9.44796" fill="#C4C4C4"/>
</mask>
<g mask="url(#mask10)">
<path fill-rule="evenodd" clip-rule="evenodd" d="M45.1233 50.4841C44.3535 49.1492 43.5042 47.6798 42.6503 46.2041C42.0936 47.4515 41.1807 48.4944 40.0462 49.1936C40.8198 50.5742 41.6121 51.9903 42.2848 53.1967C43.3956 52.4819 44.3601 51.5594 45.1233 50.4841ZM31.0989 53.1665C31.7692 51.9645 32.5564 50.5576 33.3248 49.1862C32.2084 48.4948 31.3074 47.4701 30.7509 46.2454C29.9058 47.7056 29.066 49.1584 28.3039 50.4797C29.057 51.5417 30.0062 52.4549 31.0989 53.1665Z" fill="#7D35E8"/>
</g>
<mask id="mask11" mask-type="alpha" maskUnits="userSpaceOnUse" x="28" y="46" width="18" height="8">
<path fill-rule="evenodd" clip-rule="evenodd" d="M45.1229 50.4841C44.3531 49.1492 43.5038 47.6798 42.6498 46.2041C42.0932 47.4515 41.1803 48.4944 40.0458 49.1936C40.8194 50.5742 41.6117 51.9903 42.2844 53.1967C43.3952 52.4819 44.3596 51.5594 45.1229 50.4841ZM31.0985 53.1665C31.7688 51.9645 32.556 50.5576 33.3244 49.1862C32.208 48.4948 31.307 47.4701 30.7505 46.2454C29.9054 47.7056 29.0656 49.1584 28.3035 50.4797C29.0565 51.5417 30.0058 52.4549 31.0985 53.1665Z" fill="#7D35E8"/>
</mask>
<g mask="url(#mask11)">
<path d="M45.246 53.7129H45.0995C45.042 53.5872 44.5722 52.9273 43.9584 51.8395C43.3478 50.7575 42.5956 49.2517 41.676 47.6371C38.758 42.5139 34.8898 35.7621 33.9155 34.0619C33.8122 33.8818 33.5604 33.8749 33.4562 34.0544C31.8584 36.8046 22.434 53.0332 22.1372 53.6811L22.1181 53.7129H22.1224C21.3888 55.3196 20.9754 57.1044 20.9754 58.9868C20.9754 66.0052 26.6657 71.6946 33.6852 71.6946C40.7048 71.6946 46.395 66.0052 46.395 58.9868C46.3929 57.1044 45.9816 55.3196 45.246 53.7129ZM33.6555 65.9162C29.1886 65.9162 25.5654 62.1727 25.5654 57.5581C25.5654 56.3201 25.8282 55.1458 26.2947 54.0881L26.3053 54.0669C26.513 53.6005 33.6555 40.8969 33.6555 40.8969C33.6555 40.8969 40.798 53.6005 41.0058 54.0669L41.0164 54.0881C41.485 55.1458 41.7457 56.3201 41.7457 57.5581C41.7457 62.1727 38.1246 65.9162 33.6555 65.9162Z" fill="#5A1EB4"/>
</g>
</g>
<path d="M71.7607 62.8137V37.8813H77.3251V57.8557H87.9543V62.8137H71.7607Z" fill="#DDC7FD"/>
<path d="M95.0652 62.8137H89.7149V43.6239H95.0652V62.8137ZM90.1429 41.1985C89.5485 40.5802 89.2512 39.8312 89.2512 38.9513C89.2512 38.0715 89.5485 37.3344 90.1429 36.7399C90.7612 36.1216 91.5102 35.8125 92.3901 35.8125C93.2699 35.8125 94.007 36.1216 94.6015 36.7399C95.2198 37.3344 95.5289 38.0715 95.5289 38.9513C95.5289 39.8312 95.2198 40.5802 94.6015 41.1985C94.007 41.793 93.2699 42.0902 92.3901 42.0902C91.5102 42.0902 90.7612 41.793 90.1429 41.1985Z" fill="#DDC7FD"/>
<path d="M106.443 63.099C103.994 63.099 101.854 62.1835 100.023 60.3526C98.1919 58.4978 97.2764 56.1318 97.2764 53.2545C97.2764 50.3534 98.1681 47.9755 99.9515 46.1208C101.735 44.2422 103.721 43.3029 105.908 43.3029C108.096 43.3029 110.01 44.1233 111.651 45.7641V43.6239H117.037V69.7334H111.651V61.2799C110.129 62.4927 108.393 63.099 106.443 63.099ZM102.662 53.2545C102.662 54.8001 103.126 56.0723 104.053 57.071C104.981 58.046 106.063 58.5335 107.299 58.5335C108.536 58.5335 109.582 58.046 110.438 57.071C111.294 56.0723 111.722 54.8001 111.722 53.2545C111.722 51.6851 111.294 50.3891 110.438 49.3666C109.582 48.3203 108.524 47.7972 107.264 47.7972C106.003 47.7972 104.921 48.3203 104.018 49.3666C103.114 50.3891 102.662 51.6851 102.662 53.2545Z" fill="#DDC7FD"/>
<path d="M132.696 53.9679V43.6239H138.082V62.8137H132.696V60.2812C131.364 62.1598 129.64 63.099 127.524 63.099C125.431 63.099 123.672 62.4451 122.245 61.1373C120.818 59.8056 120.105 57.8439 120.105 55.2519V43.6239H125.491V54.0749C125.491 57.0235 126.573 58.4978 128.737 58.4978C129.807 58.4978 130.734 58.1173 131.519 57.3564C132.304 56.5717 132.696 55.4422 132.696 53.9679Z" fill="#DDC7FD"/>
<path d="M146.701 62.8137H141.351V43.6239H146.701V62.8137ZM141.779 41.1985C141.184 40.5802 140.887 39.8312 140.887 38.9513C140.887 38.0715 141.184 37.3344 141.779 36.7399C142.397 36.1216 143.146 35.8125 144.026 35.8125C144.906 35.8125 145.643 36.1216 146.238 36.7399C146.856 37.3344 147.165 38.0715 147.165 38.9513C147.165 39.8312 146.856 40.5802 146.238 41.1985C145.643 41.793 144.906 42.0902 144.026 42.0902C143.146 42.0902 142.397 41.793 141.779 41.1985Z" fill="#DDC7FD"/>
<path d="M161.967 57.8914C164.702 57.8914 166.937 56.8095 168.673 54.6456L172.24 58.3194C169.41 61.5058 166.069 63.099 162.217 63.099C158.388 63.099 155.226 61.8863 152.729 59.4608C150.256 57.0354 149.019 53.9798 149.019 50.294C149.019 46.5844 150.28 43.4932 152.8 41.0201C155.345 38.5471 158.448 37.3106 162.11 37.3106C166.2 37.3106 169.624 38.8681 172.382 41.9832L168.923 45.9067C167.163 43.7191 164.975 42.6252 162.359 42.6252C160.267 42.6252 158.472 43.3148 156.974 44.694C155.499 46.0494 154.762 47.8923 154.762 50.2227C154.762 52.5292 155.464 54.384 156.867 55.787C158.269 57.1899 159.97 57.8914 161.967 57.8914Z" fill="#DDC7FD"/>
<path d="M179.674 52.4698V62.8137H174.324V36.3475H179.674V45.7641C181.291 44.1233 183.098 43.3029 185.095 43.3029C187.117 43.3029 188.817 44.0163 190.196 45.443C191.575 46.8698 192.265 48.7721 192.265 51.15V62.8137H186.915V52.3271C186.915 49.3785 185.833 47.9042 183.669 47.9042C182.599 47.9042 181.659 48.2965 180.851 49.0813C180.066 49.8422 179.674 50.9717 179.674 52.4698Z" fill="#DDC7FD"/>
<path d="M211.621 62.8137H206.592V60.4952C205.213 62.2311 203.501 63.099 201.456 63.099C199.435 63.099 197.734 62.5165 196.355 61.3513C194.976 60.1623 194.286 58.5929 194.286 56.643C194.286 54.6693 195 53.195 196.426 52.2201C197.853 51.2452 199.803 50.7577 202.276 50.7577H206.271V50.6507C206.271 48.6057 205.189 47.5832 203.025 47.5832C202.098 47.5832 201.111 47.7734 200.065 48.1539C199.042 48.5106 198.174 48.9624 197.461 49.5093L195.071 46.0494C197.592 44.2184 200.469 43.3029 203.703 43.3029C206.033 43.3029 207.936 43.8855 209.41 45.0507C210.884 46.2159 211.621 48.0587 211.621 50.5793V62.8137ZM206.235 55.5016V54.5742H202.882C200.742 54.5742 199.672 55.24 199.672 56.5717C199.672 57.2613 199.922 57.7963 200.421 58.1768C200.944 58.5335 201.682 58.7118 202.633 58.7118C203.584 58.7118 204.416 58.4264 205.13 57.8557C205.867 57.2613 206.235 56.4766 206.235 55.5016Z" fill="#DDC7FD"/>
<path d="M220.066 62.8137H214.716V43.6239H220.066V62.8137ZM215.144 41.1985C214.549 40.5802 214.252 39.8312 214.252 38.9513C214.252 38.0715 214.549 37.3344 215.144 36.7399C215.762 36.1216 216.511 35.8125 217.391 35.8125C218.271 35.8125 219.008 36.1216 219.602 36.7399C220.22 37.3344 220.53 38.0715 220.53 38.9513C220.53 39.8312 220.22 40.5802 219.602 41.1985C219.008 41.793 218.271 42.0902 217.391 42.0902C216.511 42.0902 215.762 41.793 215.144 41.1985Z" fill="#DDC7FD"/>
<path d="M228.697 52.1131V62.8137H223.347V43.6239H228.697V45.7641C230.314 44.1233 232.133 43.3029 234.155 43.3029C236.176 43.3029 237.864 44.0163 239.22 45.443C240.599 46.8698 241.288 48.7721 241.288 51.15V62.8137H235.938V51.9704C235.938 49.0218 234.856 47.5475 232.692 47.5475C231.622 47.5475 230.683 47.9399 229.874 48.7246C229.09 49.4855 228.697 50.615 228.697 52.1131Z" fill="#DDC7FD"/>
<defs>
<filter id="filter0_f" x="0" y="0.265381" width="73.4196" height="97.7348" filterUnits="userSpaceOnUse" color-interpolation-filters="sRGB">
<feFlood flood-opacity="0" result="BackgroundImageFix"/>
<feBlend mode="normal" in="SourceGraphic" in2="BackgroundImageFix" result="shape"/>
<feGaussianBlur stdDeviation="12" result="effect1_foregroundBlur"/>
</filter>
<linearGradient id="paint0_linear" x1="35.8625" y1="60.4748" x2="45.7453" y2="82.0142" gradientUnits="userSpaceOnUse">
<stop stop-color="#914AFB" stop-opacity="0"/>
<stop offset="1" stop-color="#4A05B1"/>
</linearGradient>
<linearGradient id="paint1_linear" x1="34.2985" y1="43.0473" x2="32.1334" y2="47.7304" gradientUnits="userSpaceOnUse">
<stop stop-color="#641AD2" stop-opacity="0"/>
<stop offset="1" stop-color="#641AD2"/>
</linearGradient>
<linearGradient id="paint2_linear" x1="1.82264" y1="1.92703" x2="2.08599" y2="5.11451" gradientUnits="userSpaceOnUse">
<stop stop-color="#641AD2" stop-opacity="0"/>
<stop offset="1" stop-color="#641AD2"/>
</linearGradient>
<linearGradient id="paint3_linear" x1="36.3705" y1="25.8213" x2="40.425" y2="42.2293" gradientUnits="userSpaceOnUse">
<stop stop-color="#CFD4FF"/>
<stop offset="1" stop-color="#B482FE" stop-opacity="0"/>
</linearGradient>
<linearGradient id="paint4_linear" x1="47.2239" y1="44.5941" x2="43.6867" y2="48.1712" gradientUnits="userSpaceOnUse">
<stop stop-color="#B685FF" stop-opacity="0"/>
<stop offset="1" stop-color="#4023D2"/>
</linearGradient>
<linearGradient id="paint5_linear" x1="37.554" y1="52.2802" x2="40.842" y2="50.6715" gradientUnits="userSpaceOnUse">
<stop stop-color="#14A4BA" stop-opacity="0"/>
<stop offset="1" stop-color="#4C30DC"/>
</linearGradient>
<linearGradient id="paint6_linear" x1="35.8625" y1="60.4748" x2="45.7453" y2="82.0142" gradientUnits="userSpaceOnUse">
<stop stop-color="#914AFB" stop-opacity="0"/>
<stop offset="1" stop-color="#4A05B1"/>
</linearGradient>
<linearGradient id="paint7_linear" x1="34.2985" y1="43.0473" x2="32.1334" y2="47.7304" gradientUnits="userSpaceOnUse">
<stop stop-color="#641AD2" stop-opacity="0"/>
<stop offset="1" stop-color="#641AD2"/>
</linearGradient>
<linearGradient id="paint8_linear" x1="1.82264" y1="1.92703" x2="2.08599" y2="5.11451" gradientUnits="userSpaceOnUse">
<stop stop-color="#641AD2" stop-opacity="0"/>
<stop offset="1" stop-color="#641AD2"/>
</linearGradient>
<linearGradient id="paint9_linear" x1="36.3705" y1="25.8213" x2="40.425" y2="42.2293" gradientUnits="userSpaceOnUse">
<stop stop-color="#CFD4FF"/>
<stop offset="1" stop-color="#B482FE" stop-opacity="0"/>
</linearGradient>
<linearGradient id="paint10_linear" x1="47.2239" y1="44.5941" x2="43.6867" y2="48.1712" gradientUnits="userSpaceOnUse">
<stop stop-color="#B685FF" stop-opacity="0"/>
<stop offset="1" stop-color="#4023D2"/>
</linearGradient>
<linearGradient id="paint11_linear" x1="37.554" y1="52.2802" x2="40.842" y2="50.6715" gradientUnits="userSpaceOnUse">
<stop stop-color="#14A4BA" stop-opacity="0"/>
<stop offset="1" stop-color="#4C30DC"/>
</linearGradient>
</defs>
</svg>
